<?xml version="1.0" encoding="iso-8859-1"?>
<!-- Generator: Adobe Illustrator 21.0.0, SVG Export Plug-In . SVG Version: 6.00 Build 0)  -->
<svg version="1.1" id="Capa_1" xmlns="http://www.w3.org/2000/svg" xmlns:xlink="http://www.w3.org/1999/xlink" x="0px" y="0px"
	 viewBox="0 0 512 512" style="enable-background:new 0 0 512 512;" xml:space="preserve">
<g>
	<path style="fill:#9BFBFF;" d="M445.267,246.388c-17.785,16.949-41.113,26.321-65.7,26.404H111.926
		c-40.958,0-74.236-31.534-74.236-71.387c0-39.761,33.134-72.131,73.906-72.275C115.601,57.411,175.087,0.268,247.713,0h0.516
		c56.72,0,105.461,34.434,126.311,84.176C461.896,79.335,508.087,186.53,445.267,246.388z"/>
	<path style="fill:#9BFBFF;" d="M75.457,511.513c-8.291-2.095-13.312-10.515-11.217-18.806
		c1.994-7.889,25.039-87.403,31.395-104.493c2.98-8.015,11.896-12.095,19.908-9.116c8.016,2.98,12.097,11.894,9.116,19.909
		c-4.23,11.375-28.038,91.956-30.396,101.289C92.173,508.561,83.77,513.615,75.457,511.513z"/>
</g>
<g>
	<path style="fill:#00E7F0;" d="M122.582,354.223c-8.276-2.149-13.243-10.601-11.094-18.878c2.864-11.033,6.996-20.394,8.729-28.887
		c1.708-8.378,9.888-13.784,18.265-12.076c8.378,1.709,13.785,9.888,12.076,18.266c-2.31,11.32-6.494,20.444-9.098,30.48
		C139.307,351.419,130.845,356.369,122.582,354.223z"/>
	<path style="fill:#00E7F0;" d="M164.294,511.989c-10.263,0-17.699-9.819-14.907-19.697c3.484-12.334,7.778-24.875,11.032-36.731
		c2.262-8.246,10.788-13.096,19.029-10.833c8.246,2.264,13.097,10.782,10.833,19.029c-3.534,12.881-7.621,24.661-11.094,36.955
		C177.258,507.533,171.05,511.989,164.294,511.989z"/>
</g>
<g>
	<path style="fill:#9BFBFF;" d="M187.284,420.07c-8.197-2.435-12.868-11.054-10.432-19.252
		c9.406-31.656,19.916-63.595,28.641-95.366c2.265-8.246,10.788-13.095,19.031-10.83c8.246,2.265,13.096,10.784,10.831,19.031
		c-8.93,32.517-19.365,64.17-28.818,95.984C204.104,417.822,195.492,422.509,187.284,420.07z"/>
	<path style="fill:#9BFBFF;" d="M295.319,397.172c-11.117,36.633-21.14,69.715-31.142,103.706
		c-2.465,8.342-11.278,12.889-19.23,10.477c-8.206-2.415-12.892-11.024-10.477-19.23c10.155-34.454,19.539-65.489,31.214-103.953
		c2.477-8.175,11.127-12.799,19.313-10.312C293.172,380.337,297.796,388.987,295.319,397.172z"/>
</g>
<g>
	<path style="fill:#00E7F0;" d="M320.05,314.709c-2.82,7.989-5.041,18.603-8.629,28.747c-2.844,8.037-11.649,12.284-19.756,9.434
		c-8.062-2.859-12.283-11.705-9.434-19.767c3.108-8.781,5.25-19.172,8.629-28.726c2.829-7.994,11.605-12.31,19.756-9.445
		C318.677,297.802,322.909,306.648,320.05,314.709z"/>
	<path style="fill:#00E7F0;" d="M358.706,469.22c-2.882,10.604-7.165,21.335-9.238,30.657c-1.887,8.453-10.28,13.587-18.497,11.736
		c-8.34-1.868-13.594-10.147-11.726-18.487c2.683-11.963,6.742-21.597,9.589-32.06c2.25-8.247,10.766-13.109,19.013-10.859
		C356.095,452.457,360.957,460.963,358.706,469.22z"/>
	<path style="fill:#00E7F0;" d="M405.187,314.441c-11.679,35.077-21.815,71.738-29.965,99.783
		c-2.381,8.276-11.025,12.948-19.158,10.59c-8.216-2.364-12.965-10.952-10.59-19.168c9.279-32.107,18.901-66.644,30.326-100.981
		c2.695-8.073,11.409-12.512,19.581-9.806C403.494,297.564,407.881,306.328,405.187,314.441z"/>
	<path style="fill:#00E7F0;" d="M445.267,246.388c-17.785,16.949-41.113,26.321-65.7,26.404H247.713V0h0.516
		c56.72,0,105.46,34.434,126.311,84.176C461.896,79.335,508.087,186.53,445.267,246.388z"/>
</g>
<g>
</g>
<g>
</g>
<g>
</g>
<g>
</g>
<g>
</g>
<g>
</g>
<g>
</g>
<g>
</g>
<g>
</g>
<g>
</g>
<g>
</g>
<g>
</g>
<g>
</g>
<g>
</g>
<g>
</g>
</svg>
