<?xml version="1.0" encoding="iso-8859-1"?>
<!-- Generator: Adobe Illustrator 19.0.0, SVG Export Plug-In . SVG Version: 6.00 Build 0)  -->
<svg version="1.1" id="Capa_1" xmlns="http://www.w3.org/2000/svg" xmlns:xlink="http://www.w3.org/1999/xlink" x="0px" y="0px"
	 viewBox="0 0 512 512" style="enable-background:new 0 0 512 512;" xml:space="preserve">
<path style="fill:#ACE3FC;" d="M419.389,333.007l-46.582-26.893l46.978-12.585c7.998-2.139,12.744-10.371,10.605-18.369
	s-10.313-12.729-18.369-10.605l-75.954,20.35l-20.609-11.898c-7.178-4.146-16.348-1.685-20.493,5.493s-1.685,16.348,5.493,20.493
	l20.609,11.898l20.349,75.948c2.141,8.037,10.412,12.751,18.369,10.605c7.998-2.139,12.744-10.371,10.605-18.369l-12.585-46.978
	l46.584,26.895c7.13,4.118,16.315,1.719,20.493-5.493C429.027,346.322,426.566,337.152,419.389,333.007z"/>
<g>
	<path style="fill:#CCEFFF;" d="M211.542,213.007l-20.609-11.898l-20.349-75.948c-2.139-8.013-10.371-12.759-18.369-10.605
		c-7.998,2.139-12.744,10.371-10.605,18.369l12.585,46.978l-46.584-26.895c-7.178-4.16-16.362-1.685-20.493,5.493
		c-4.146,7.178-1.685,16.348,5.493,20.493l46.582,26.893l-46.978,12.585c-7.998,2.139-12.744,10.371-10.605,18.369
		c2.141,8.037,10.412,12.751,18.369,10.605l75.954-20.35l20.609,11.898c7.13,4.118,16.315,1.719,20.493-5.493
		C221.181,226.322,218.72,217.152,211.542,213.007z"/>
	<path style="fill:#CCEFFF;" d="M217.035,278.5c-4.175-7.207-13.345-9.639-20.493-5.493l-20.609,11.898l-75.954-20.35
		c-7.969-2.109-16.216,2.607-18.369,10.605c-2.139,7.998,2.607,16.23,10.605,18.369l46.978,12.585l-46.582,26.893
		c-7.178,4.146-9.639,13.315-5.493,20.493c4.188,7.253,13.423,9.577,20.493,5.493l46.584-26.895l-12.585,46.978
		c-2.139,7.998,2.607,16.23,10.605,18.369c7.896,2.129,16.214-2.533,18.369-10.605l20.349-75.948l20.609-11.898
		C218.72,294.848,221.181,285.678,217.035,278.5z"/>
</g>
<path style="fill:#ACE3FC;" d="M419.784,218.471l-46.978-12.585l46.582-26.893c7.178-4.146,9.639-13.315,5.493-20.493
	c-4.16-7.192-13.345-9.653-20.493-5.493l-46.584,26.895l12.585-46.978c2.139-7.998-2.607-16.23-10.605-18.369
	c-7.998-2.124-16.23,2.607-18.369,10.605l-20.349,75.948l-20.609,11.898c-7.178,4.146-9.639,13.315-5.493,20.493
	c4.188,7.253,13.423,9.577,20.493,5.493l20.609-11.898l75.954,20.35c7.896,2.129,16.214-2.533,18.369-10.605
	C432.528,228.842,427.782,220.609,419.784,218.471z"/>
<path style="fill:#CCEFFF;" d="M326.499,116.499L270.9,172.301V196c0,8.401-6.499,15-14.9,15s-15-6.599-15-15v-23.699L185.501,116.5
	c-6-5.7-6-15.298,0-20.999c5.7-6,15.298-6,20.999,0l34.5,34.198V76c0-8.401,6.599-15,15-15s14.9,6.599,14.9,15v53.699L305.501,95.5
	c5.7-6,15.298-6,20.999,0C332.5,101.201,332.5,110.799,326.499,116.499z"/>
<path style="fill:#ACE3FC;" d="M326.499,116.499L270.9,172.301V196c0,8.401-6.499,15-14.9,15V61c8.401,0,14.9,6.599,14.9,15v53.699
	L305.501,95.5c5.7-6,15.298-6,20.999,0C332.5,101.201,332.5,110.799,326.499,116.499z"/>
<path style="fill:#CCEFFF;" d="M326.499,416.499c-5.7,6-15.298,6-20.999,0l-34.6-34.198V436c0,8.401-6.499,15-14.9,15
	s-15-6.599-15-15v-53.699L206.499,416.5c-5.7,6-15.298,6-20.999,0c-6-5.7-6-15.298,0-20.999l55.5-55.802V316c0-8.401,6.599-15,15-15
	s14.9,6.599,14.9,15v23.699l55.599,55.801C332.5,401.201,332.5,410.799,326.499,416.499z"/>
<path style="fill:#ACE3FC;" d="M326.499,416.499c-5.7,6-15.298,6-20.999,0l-34.6-34.198V436c0,8.401-6.499,15-14.9,15V301
	c8.401,0,14.9,6.599,14.9,15v23.699l55.599,55.801C332.5,401.201,332.5,410.799,326.499,416.499z"/>
<path style="fill:#DCF4FF;" d="M256,421c-24.901,0-45,20.099-45,45s20.099,46,45,46s45-21.099,45-46S280.901,421,256,421z"/>
<path style="fill:#CCEFFF;" d="M301,466c0,24.901-20.099,46-45,46v-91C280.901,421,301,441.099,301,466z"/>
<path style="fill:#DCF4FF;" d="M256,181c-41.4,0-75,33.6-75,75s33.6,75,75,75s75-33.6,75-75S297.4,181,256,181z"/>
<path style="fill:#CCEFFF;" d="M331,256c0,41.4-33.6,75-75,75V181C297.4,181,331,214.6,331,256z"/>
<path style="fill:#DCF4FF;" d="M256,0c-24.901,0-45,21.099-45,46s20.099,45,45,45s45-20.099,45-45S280.901,0,256,0z"/>
<path style="fill:#CCEFFF;" d="M301,46c0,24.901-20.099,45-45,45V0C280.901,0,301,21.099,301,46z"/>
<path style="fill:#DCF4FF;" d="M51.64,189.979c-21.475-12.407-28.872-39.976-16.479-61.465
	c12.422-21.504,39.946-28.872,61.464-16.494h0.03c21.475,12.422,28.857,40.005,16.45,61.479
	C100.702,194.978,73.209,202.428,51.64,189.979z"/>
<g>
	<path style="fill:#CCEFFF;" d="M415.374,399.979c-21.503-12.422-28.886-40.005-16.479-61.479c12.327-21.347,39.76-29,61.465-16.479
		l0,0c21.475,12.407,28.872,39.976,16.479,61.465C464.404,405.013,436.822,412.349,415.374,399.979z"/>
	<path style="fill:#CCEFFF;" d="M398.896,173.485c-12.407-21.46-5.024-49.043,16.45-61.465h0.029
		c21.461-12.393,49.044-5.01,61.465,16.479c12.393,21.504,4.995,49.072-16.479,61.479C438.945,202.34,411.4,195.171,398.896,173.485
		z"/>
</g>
<path style="fill:#DCF4FF;" d="M35.16,383.5c-12.393-21.504-4.995-49.072,16.479-61.479l0,0c21.049-12.172,48.8-5.469,61.465,16.494
	c12.407,21.46,5.024,49.043-16.45,61.465C75.212,412.321,47.647,405.094,35.16,383.5z"/>
<g>
</g>
<g>
</g>
<g>
</g>
<g>
</g>
<g>
</g>
<g>
</g>
<g>
</g>
<g>
</g>
<g>
</g>
<g>
</g>
<g>
</g>
<g>
</g>
<g>
</g>
<g>
</g>
<g>
</g>
</svg>
