<svg height="512pt" viewBox="0 -5 512 512" width="512pt" xmlns="http://www.w3.org/2000/svg"><path d="m416.8125 280.546875c-27.59375 0-53.675781-12.113281-71.574219-32.484375-25.054687 20.8125-56.894531 32.484375-89.738281 32.484375-27.546875 0-54.609375-8.210937-77.457031-23.328125-19.300781 15.125-42.953125 23.328125-67.828125 23.328125-60.773438 0-110.214844-49.441406-110.214844-110.214844 0-60.773437 49.441406-110.214843 110.214844-110.214843 9.453125 0 18.746094 1.183593 27.773437 3.53125 25.777344-39.554688 69.734375-63.648438 117.511719-63.648438 32.523438 0 64.222656 11.386719 89.261719 32.0625 19.992187 16.507812 35.011719 38.277344 43.386719 62.53125 9.238281-2.910156 18.921874-4.417969 28.664062-4.417969 52.488281 0 95.1875 42.699219 95.1875 95.1875 0 52.484375-42.699219 95.183594-95.1875 95.183594zm0 0" fill="#cae8f9"/><path d="m416.8125 90.175781c-9.742188 0-19.425781 1.507813-28.664062 4.417969-8.375-24.253906-23.394532-46.023438-43.386719-62.53125-24.90625-20.570312-56.414063-31.941406-88.761719-32.05859375v280.53906275c32.667969-.121094 64.3125-11.773438 89.238281-32.480469 17.898438 20.371094 43.976563 32.484375 71.574219 32.484375 52.488281 0 95.1875-42.699219 95.1875-95.183594 0-52.488281-42.699219-95.1875-95.1875-95.1875zm0 0" fill="#a3d9f6"/><path d="m174.484375 501.65625 36.046875-185.039062h-32.769531l41.5625-192.375h124.527343l-41.007812 102.199218h57.050781zm0 0" fill="#ffdf48"/><path d="m256 124.242188v256.417968l103.894531-154.21875h-57.046875l41.003906-102.199218zm0 0" fill="#fec001"/></svg>